<?xml version="1.0" encoding="utf-8"?>
<!-- Generator: Adobe Illustrator 25.4.1, SVG Export Plug-In . SVG Version: 6.00 Build 0)  -->
<svg version="1.1" id="Capa_1" xmlns="http://www.w3.org/2000/svg" xmlns:xlink="http://www.w3.org/1999/xlink" x="0px" y="0px"
	 viewBox="0 0 32 40" enable-background="new 0 0 32 40" xml:space="preserve">
<path fill-rule="evenodd" clip-rule="evenodd" d="M30.1,19.1l1.4-4.3c0.1-0.4,0-0.9-0.4-1.2l-3.7-2.7L26,6.6c-0.1-0.5-0.5-0.8-1-0.8
	h-4.5l-3.7-2.7c-0.4-0.3-0.9-0.3-1.3,0l-3.7,2.7H7.3c-0.5,0-0.9,0.3-1.1,0.7l-1.1,3.6h15.4c0.3,0,0.5,0.2,0.5,0.5v0.9
	c0,0.3-0.2,0.5-0.5,0.5H3.3l-2.2,1.6c-0.4,0.3-0.5,0.8-0.4,1.2l1.4,4.3l-1.4,4.3c-0.1,0.4,0,0.9,0.4,1.2l3.7,2.7l1.4,4.3
	c0.2,0.5,0.6,0.8,1.1,0.7h4.6l3.7,2.7c0.4,0.3,0.9,0.3,1.3,0l3.7-2.7H25c0.4,0,0.8-0.2,1-0.6l1.4-4.3l3.7-2.7
	c0.4-0.3,0.5-0.8,0.4-1.2L30.1,19.1z M13.9,25.2H4.3c-0.2,0-0.4-0.2-0.4-0.4v-0.9l3-5.2c0.1-0.1,0.2-0.2,0.3-0.2
	c0.1,0,0.3,0.1,0.3,0.2l1.7,2.9l-0.9,1.6L9.7,24l2.1-3.6c0.1-0.1,0.2-0.2,0.3-0.2c0.1,0,0.3,0.1,0.3,0.2l1.9,3.2l0.1,1.2
	C14.3,25,14.1,25.2,13.9,25.2z M13.8,19.6c-0.5-0.9-1.7-1.2-2.6-0.7c-0.3,0.2-0.5,0.4-0.7,0.7l-0.2,0.4L9,17.9
	c-0.5-0.9-1.7-1.2-2.6-0.7c-0.3,0.2-0.5,0.4-0.7,0.7l-1.7,2.8v-5.5c0-0.2,0.2-0.4,0.4-0.4h9.6c0.2,0,0.4,0.2,0.4,0.4l0.1,5.3
	L13.8,19.6z M28.1,24.5c0,0.4-0.2,0.7-0.4,0.7H16.8c-0.2,0-0.4-0.3-0.4-0.7v-0.7c0-0.4,0.2-0.7,0.4-0.7h10.8c0.2,0,0.4,0.3,0.4,0.7
	V24.5z M28.1,20.3c0,0.4-0.2,0.7-0.4,0.7H16.8c-0.2,0-0.4-0.3-0.4-0.7v-0.7c0-0.4,0.2-0.7,0.4-0.7h10.8c0.2,0,0.4,0.3,0.4,0.7V20.3z
	 M28.1,16.2c0,0.4-0.2,0.7-0.4,0.7H16.8c-0.2,0-0.4-0.3-0.4-0.7v-0.7c0-0.4,0.2-0.7,0.4-0.7h10.8c0.2,0,0.4,0.3,0.4,0.7V16.2z"/>
</svg>
